<mxfile host="app.diagrams.net" agent="Mozilla/5.0 (Windows NT 10.0; Win64; x64; rv:139.0) Gecko/20100101 Firefox/139.0" version="27.1.6">
  <diagram name="Page-1" id="80ahrX5ptSfHO6c14ZAz">
    <mxGraphModel dx="786" dy="471" grid="1" gridSize="10" guides="1" tooltips="1" connect="1" arrows="1" fold="1" page="1" pageScale="1" pageWidth="1654" pageHeight="1169" math="0" shadow="0">
      <root>
        <mxCell id="0" />
        <mxCell id="1" parent="0" />
        <mxCell id="SFuzRpUiUkyODQvP4APT-15" style="edgeStyle=orthogonalEdgeStyle;rounded=0;orthogonalLoop=1;jettySize=auto;html=1;exitX=1;exitY=0.5;exitDx=0;exitDy=0;entryX=0;entryY=0.5;entryDx=0;entryDy=0;" edge="1" source="SFuzRpUiUkyODQvP4APT-16" target="SFuzRpUiUkyODQvP4APT-18" parent="1">
          <mxGeometry relative="1" as="geometry" />
        </mxCell>
        <UserObject label="symbol" tooltip="label&#xa;trace&#xa;(text)" id="SFuzRpUiUkyODQvP4APT-16">
          <mxCell style="rectangle;fillColor=#dae8fc;strokeColor=#6c8ebf;" name="symbol" vertex="1" parent="1">
            <mxGeometry x="180" y="290" width="100" height="50" as="geometry" />
          </mxCell>
        </UserObject>
        <mxCell id="SFuzRpUiUkyODQvP4APT-17" style="edgeStyle=orthogonalEdgeStyle;rounded=0;orthogonalLoop=1;jettySize=auto;html=1;exitX=1;exitY=0.5;exitDx=0;exitDy=0;entryX=0;entryY=0.5;entryDx=0;entryDy=0;" edge="1" source="SFuzRpUiUkyODQvP4APT-18" target="SFuzRpUiUkyODQvP4APT-21" parent="1">
          <mxGeometry relative="1" as="geometry" />
        </mxCell>
        <UserObject label="transform" tooltip="embed" id="SFuzRpUiUkyODQvP4APT-18">
          <mxCell style="rounded=1;whiteSpace=wrap;html=1;arcSize=50;fillColor=#f8cecc;strokeColor=#b85450;" name="transform" vertex="1" parent="1">
            <mxGeometry x="360" y="290" width="100" height="50" as="geometry" />
          </mxCell>
        </UserObject>
        <mxCell id="SFuzRpUiUkyODQvP4APT-19" style="edgeStyle=orthogonalEdgeStyle;rounded=0;orthogonalLoop=1;jettySize=auto;html=1;entryX=0.5;entryY=0;entryDx=0;entryDy=0;" edge="1" source="SFuzRpUiUkyODQvP4APT-20" target="SFuzRpUiUkyODQvP4APT-18" parent="1">
          <mxGeometry relative="1" as="geometry" />
        </mxCell>
        <UserObject label="data" tooltip="number&#xa;text&#xa;tensor&#xa;stream&#xa;(matrix)&#xa;(numeric)&#xa;(time-series)" id="SFuzRpUiUkyODQvP4APT-20">
          <mxCell style="rectangle;fillColor=#fff2cc;strokeColor=#d6b656;" name="data" vertex="1" parent="1" tooltip="⚠️ Node not part of any valid pattern.">
            <mxGeometry x="360" y="160" width="100" height="50" as="geometry" />
          </mxCell>
        </UserObject>
        <UserObject label="symbol" tooltip="label&#xa;trace&#xa;(text)" id="SFuzRpUiUkyODQvP4APT-21">
          <mxCell style="rectangle;fillColor=#dae8fc;strokeColor=#6c8ebf;" name="symbol" vertex="1" parent="1">
            <mxGeometry x="540" y="290" width="100" height="50" as="geometry" />
          </mxCell>
        </UserObject>
      </root>
    </mxGraphModel>
  </diagram>
</mxfile>
